# xmcd
#
# Track frame offsets:
#	182
#	16327
#	34007
#
# Disc length: 676 seconds
#
# Revision: 0
# Processed by: cddbd v1.4PL0 Copyright (c) Steve Scherf et al.
# Submitted via: audiograbber 1.80.04
#
DISCID=1802a203
DTITLE=Trishya Yearwood and Garth Brooks - In Anothers Eyes (Single)
DYEAR=1997
DGENRE=Country
TTITLE0=In Anothers Eyes (Duet With Garth Brooks)
TTITLE1=Down On My Knees
TTITLE2=Belive Me Baby (I Lied)
EXTD=
EXTT0=
EXTT1=
EXTT2=
PLAYORDER=
